<?xml version="1.0" encoding="utf-8"?>
<!-- Svg Vector Icons : http://www.onlinewebfonts.com/icon -->
<!DOCTYPE svg PUBLIC "-//W3C//DTD SVG 1.1//EN" "http://www.w3.org/Graphics/SVG/1.1/DTD/svg11.dtd">
<svg version="1.1" xmlns="http://www.w3.org/2000/svg" xmlns:xlink="http://www.w3.org/1999/xlink" x="0px" y="0px" viewBox="0 0 256 256" enable-background="new 0 0 256 256" xml:space="preserve">
<metadata> Svg Vector Icons : http://www.onlinewebfonts.com/icon </metadata>
<g><g><g><path fill="#000000" d="M94.2,26.3c-7.9,2.1-14.7,8.6-17.3,16.4c-0.8,2.6-1,4.5-1.2,12.8l-0.2,9.8l-26.3,0.1C23,65.7,23,65.7,20.3,66.7c-3.8,1.5-7.3,4.9-9,8.5L10,78.2v21.6v21.6l1.3,3.7c1.9,5.4,4.3,9.2,8.5,13.4c3,3,4.5,4.2,8.1,5.9c6.4,3.2,8.8,3.6,22.6,3.6h11.6l0.2-6c0.1-5.8,0.2-6.1,1.5-8c2.2-3.1,4.7-4.6,8-4.9c5-0.5,9,1.8,11,6.1c1,2,1.1,3.1,1.1,7.5v5.2h44h44v-5.2c0-7.4,1.5-10.4,6.3-12.7c5.5-2.6,12-0.3,14.6,5.1c0.8,1.7,1,2.9,1,7.5v5.5l13.1-0.2c12.1-0.2,13.3-0.3,16.1-1.3c10.7-3.8,18.2-11.2,21.7-21.6l1.3-3.7V99.7V78.2l-1.3-2.9c-1.4-3.2-4.5-6.4-7.5-7.9c-3.6-1.8-5.8-1.9-31.7-1.9h-25l-0.2-9.9c-0.2-8.4-0.4-10.2-1.3-12.9c-2.5-7.8-9.4-14.3-17.4-16.4C157.7,25.2,98,25.3,94.2,26.3z M159.9,43.3c3.3,2.2,3.8,3.8,3.8,13.6v8.5H128H92.3v-8.5c0-7.2,0.1-8.7,0.9-10.3c1-2.1,2.7-3.6,5.1-4.3c1-0.3,12.2-0.5,30.6-0.4l29,0.1L159.9,43.3z"/><path fill="#000000" d="M69.3,136.1l-1.6,1.6v14.5c0,13.8,0,14.5,0.9,15.8c1.1,1.6,3.6,2.5,5.6,2.1c0.7-0.1,2-1,2.8-1.9l1.4-1.6v-14.4v-14.4l-1.6-1.6c-1.3-1.3-1.9-1.6-3.8-1.6C71.2,134.5,70.6,134.7,69.3,136.1z"/><path fill="#000000" d="M179.2,136.1l-1.6,1.6v14.2c0,15.9,0,16.2,3.2,17.7c2.1,1,4.3,0.5,6.1-1.3l1.4-1.4v-14.6v-14.6l-1.6-1.6c-1.3-1.3-1.9-1.6-3.8-1.6C181.1,134.5,180.5,134.7,179.2,136.1z"/><path fill="#000000" d="M18.1,185.1c0,36,0,36.8,1,38.9c1.3,2.8,2.5,4.1,5.3,5.4l2.3,1.1H128h101.3l2.3-1.1c2.8-1.3,4-2.6,5.3-5.4c0.9-2,1-2.8,1-38.9c0-20.2-0.1-36.7-0.2-36.7c-0.1,0-1.4,0.8-2.9,1.7c-3.8,2.5-8.5,4.3-13.3,5.3c-3.5,0.7-6.3,0.9-15.9,0.9h-11.7v5.3c0,6-0.5,7.8-2.9,10.3c-2.2,2.3-4.7,3.4-7.7,3.4c-3.4,0-6.2-1.2-8.3-3.6c-2.3-2.6-2.9-4.6-2.9-10.6v-4.9h-44H84v4.9c0,6-0.6,8-2.9,10.6c-4.2,4.8-11.5,4.9-16,0.2c-2.4-2.5-2.9-4.3-2.9-10.3v-5.3H50.5c-9.6,0-12.5-0.2-15.9-0.9c-4.8-1-9.5-2.8-13.3-5.3c-1.4-0.9-2.8-1.7-2.9-1.7C18.2,148.4,18.1,165,18.1,185.1z"/></g></g></g>
</svg>