<?xml version="1.0" encoding="utf-8"?>
<!-- Svg Vector Icons : http://www.onlinewebfonts.com/icon -->
<!DOCTYPE svg PUBLIC "-//W3C//DTD SVG 1.1//EN" "http://www.w3.org/Graphics/SVG/1.1/DTD/svg11.dtd">
<svg version="1.1" xmlns="http://www.w3.org/2000/svg" xmlns:xlink="http://www.w3.org/1999/xlink" x="0px" y="0px" viewBox="0 0 256 256" enable-background="new 0 0 256 256" xml:space="preserve">
<metadata> Svg Vector Icons : http://www.onlinewebfonts.com/icon </metadata>
<g><g><g><path fill="#000000" d="M101.2,22.7C86.6,24.6,73,36.6,69,51.1c-0.5,2.1-1.1,7.9-1.4,13.7l-0.4,10.1l-18.8,0.2l-18.8,0.2l-4.2,2c-7.4,3.5-11.7,8.3-14.2,15.7c-1.3,3.9-1.3,4.6-1.2,62.6l0.2,58.6l2.5,4.9c3.7,7.7,10.1,12.5,18.5,14.1c4.7,0.9,189.1,0.9,193.8,0c8.4-1.6,15.2-6.9,18.9-14.7l2.1-4.3v-59.8V94.6l-2.4-4.9c-2.9-5.9-6.7-9.5-12.7-12.3l-4.3-2.1l-19.2-0.2l-19.2-0.2V65c0-6.7-0.3-11-1-13.6c-3.7-14.3-16.3-25.8-31-28.5C150.5,22,108.6,21.8,101.2,22.7z M158.9,40.4c5.3,2.5,10.5,7.8,12.3,12.9c1.2,3.2,1.4,5.1,1.4,12.7v9h-44.6H83.4l0.3-9.9c0.2-8.3,0.4-10.3,1.6-12.9c1.7-3.7,6-8.5,9.7-10.7c5.7-3.3,6.4-3.4,34.1-3.2l25.8,0.1L158.9,40.4z M226.2,92.4c1.3,0.8,2.6,2.5,3.4,4.1c1.2,2.7,1.2,4.3,1.1,26.4l-0.2,23.4h-7.8H215l-0.3-8.1c-0.5-13.1-0.2-12.9-21.3-12.9h-15.5l-2.5,2.2l-2.4,2.2l-0.2,8.5l-0.3,8.5h-44.4H83.7l-0.3-8.5l-0.2-8.5l-2.4-2.2l-2.5-2.2H62.9c-21.1,0-20.8-0.2-21.3,12.9l-0.3,8.1h-7.8h-7.8l-0.2-23.4c-0.1-22.1-0.1-23.6,1.1-26.4c0.8-1.7,2.1-3.4,3.4-4.1c2.1-1.3,2.9-1.3,98-1.3C223.3,91.1,224,91.1,226.2,92.4z M67.4,154.1v13.2h-5.2h-5.2v-12.8c0-7,0.2-13,0.5-13.2c0.2-0.3,2.5-0.5,5.2-0.5h4.7V154.1z M199,154.2l0.1,13.1H194h-5.2v-13.2v-13.3l5,0.2l5,0.2L199,154.2z M41.6,170.2v8.1l2.2,2.5l2.2,2.4l15.6,0.2c17.2,0.2,18.3,0,20.7-3.9c1.1-1.7,1.3-3.3,1.3-9.7v-7.6h44.6h44.6v7.6c0,6.4,0.2,7.9,1.3,9.7c2.4,3.9,3.5,4.1,20.7,3.9l15.6-0.2l2.2-2.4l2.2-2.5v-8.1v-8.1h8.1h8.1v23.7c0,22.4-0.1,23.8-1.3,26.3c-0.7,1.5-2.1,3.2-3.1,3.9c-1.7,1.3-2.9,1.3-97.7,1.5c-92.6,0.1-96,0.1-98.2-1c-1.3-0.7-2.8-2.4-3.7-4c-1.5-2.8-1.5-3.1-1.5-26.6v-23.8h8.1h8.1L41.6,170.2L41.6,170.2z"/></g></g></g>
</svg>