<svg xmlns="http://www.w3.org/2000/svg" xmlns:xlink="http://www.w3.org/1999/xlink" version="1.1" width="256" height="256" viewBox="0 0 256 256" xml:space="preserve">

<defs>
</defs>
<g style="stroke: none; stroke-width: 0; stroke-dasharray: none; stroke-linecap: butt; stroke-linejoin: miter; stroke-miterlimit: 10; fill: none; fill-rule: nonzero; opacity: 1;" transform="translate(1.4065934065934016 1.4065934065934016) scale(2.81 2.81)" >
	<path d="M 69.978 37.334 v 24.279 c 0 1.905 -1.285 3.555 -3.119 4.073 c -14.572 4.111 -29.145 4.111 -43.717 0 c -1.834 -0.517 -3.119 -2.167 -3.119 -4.073 l 0 -24.279 H 69.978 z" style="stroke: none; stroke-width: 1; stroke-dasharray: none; stroke-linecap: butt; stroke-linejoin: miter; stroke-miterlimit: 10; fill: rgb(70,79,94); fill-rule: nonzero; opacity: 1;" transform=" matrix(1 0 0 1 0 0) " stroke-linecap="round" />
	<circle cx="84.388" cy="57.878" r="3.328" style="stroke: none; stroke-width: 1; stroke-dasharray: none; stroke-linecap: butt; stroke-linejoin: miter; stroke-miterlimit: 10; fill: rgb(241,210,75); fill-rule: nonzero; opacity: 1;" transform="  matrix(1 0 0 1 0 0) "/>
	<path d="M 1.993 31.41 l 38.77 12.739 c 2.752 0.904 5.722 0.904 8.474 0 l 38.77 -12.739 c 1.324 -0.435 1.324 -2.308 0 -2.743 l -38.77 -12.739 c -2.752 -0.904 -5.722 -0.904 -8.474 0 L 1.993 28.668 C 0.669 29.103 0.669 30.975 1.993 31.41 z" style="stroke: none; stroke-width: 1; stroke-dasharray: none; stroke-linecap: butt; stroke-linejoin: miter; stroke-miterlimit: 10; fill: rgb(57,63,75); fill-rule: nonzero; opacity: 1;" transform=" matrix(1 0 0 1 0 0) " stroke-linecap="round" />
	<path d="M 45 69.756 c -7.394 0 -14.788 -1.036 -22.13 -3.106 c -2.265 -0.64 -3.847 -2.711 -3.847 -5.036 V 37.334 c 0 -0.552 0.448 -1 1 -1 s 1 0.448 1 1 v 24.279 c 0 1.435 0.983 2.714 2.39 3.111 c 14.324 4.04 28.849 4.039 43.174 -0.001 c 1.407 -0.396 2.391 -1.676 2.391 -3.11 V 37.334 c 0 -0.552 0.447 -1 1 -1 s 1 0.448 1 1 v 24.279 c 0 2.325 -1.582 4.396 -3.848 5.036 C 59.788 68.72 52.394 69.756 45 69.756 z" style="stroke: none; stroke-width: 1; stroke-dasharray: none; stroke-linecap: butt; stroke-linejoin: miter; stroke-miterlimit: 10; fill: rgb(0,0,0); fill-rule: nonzero; opacity: 1;" transform=" matrix(1 0 0 1 0 0) " stroke-linecap="round" />
	<path d="M 45 45.833 c -1.531 0 -3.062 -0.245 -4.549 -0.733 L 1.681 32.36 C 0.66 32.025 0 31.114 0 30.039 s 0.66 -1.986 1.681 -2.321 l 38.77 -12.739 c 2.976 -0.977 6.123 -0.977 9.099 0 l 38.77 12.739 C 89.34 28.053 90 28.964 90 30.039 s -0.66 1.986 -1.682 2.321 L 49.55 45.099 C 48.062 45.588 46.53 45.833 45 45.833 z M 45 16.247 c -1.321 0 -2.641 0.211 -3.925 0.633 L 2.305 29.618 C 2.04 29.705 2 29.919 2 30.039 s 0.04 0.334 0.305 0.421 l 0 0 l 38.77 12.739 c 2.567 0.844 5.281 0.844 7.85 0 l 38.77 -12.739 C 87.96 30.373 88 30.159 88 30.039 s -0.04 -0.334 -0.305 -0.421 L 48.925 16.879 C 47.642 16.458 46.32 16.247 45 16.247 z" style="stroke: none; stroke-width: 1; stroke-dasharray: none; stroke-linecap: butt; stroke-linejoin: miter; stroke-miterlimit: 10; fill: rgb(0,0,0); fill-rule: nonzero; opacity: 1;" transform=" matrix(1 0 0 1 0 0) " stroke-linecap="round" />
	<path d="M 84.384 55.555 c -0.553 0 -1 -0.447 -1 -1 V 32.601 c 0 -0.552 0.447 -1 1 -1 s 1 0.448 1 1 v 21.954 C 85.384 55.107 84.937 55.555 84.384 55.555 z" style="stroke: none; stroke-width: 1; stroke-dasharray: none; stroke-linecap: butt; stroke-linejoin: miter; stroke-miterlimit: 10; fill: rgb(0,0,0); fill-rule: nonzero; opacity: 1;" transform=" matrix(1 0 0 1 0 0) " stroke-linecap="round" />
	<path d="M 84.384 62.211 c -2.387 0 -4.328 -1.941 -4.328 -4.328 s 1.941 -4.328 4.328 -4.328 s 4.328 1.941 4.328 4.328 S 86.771 62.211 84.384 62.211 z M 84.384 55.555 c -1.284 0 -2.328 1.044 -2.328 2.328 s 1.044 2.328 2.328 2.328 s 2.328 -1.044 2.328 -2.328 S 85.668 55.555 84.384 55.555 z" style="stroke: none; stroke-width: 1; stroke-dasharray: none; stroke-linecap: butt; stroke-linejoin: miter; stroke-miterlimit: 10; fill: rgb(0,0,0); fill-rule: nonzero; opacity: 1;" transform=" matrix(1 0 0 1 0 0) " stroke-linecap="round" />
	<path d="M 84.384 69.77 c -0.553 0 -1 -0.447 -1 -1 v -7.559 c 0 -0.553 0.447 -1 1 -1 s 1 0.447 1 1 v 7.559 C 85.384 69.322 84.937 69.77 84.384 69.77 z" style="stroke: none; stroke-width: 1; stroke-dasharray: none; stroke-linecap: butt; stroke-linejoin: miter; stroke-miterlimit: 10; fill: rgb(0,0,0); fill-rule: nonzero; opacity: 1;" transform=" matrix(1 0 0 1 0 0) " stroke-linecap="round" />
</g>
</svg>