<svg xmlns="http://www.w3.org/2000/svg" xmlns:xlink="http://www.w3.org/1999/xlink" version="1.1" width="256" height="256" viewBox="0 0 256 256" xml:space="preserve">

<defs>
</defs>
<g style="stroke: none; stroke-width: 0; stroke-dasharray: none; stroke-linecap: butt; stroke-linejoin: miter; stroke-miterlimit: 10; fill: none; fill-rule: nonzero; opacity: 1;" transform="translate(1.4065934065934016 1.4065934065934016) scale(2.81 2.81)" >
	<circle cx="45" cy="55.07" r="33.93" style="stroke: none; stroke-width: 1; stroke-dasharray: none; stroke-linecap: butt; stroke-linejoin: miter; stroke-miterlimit: 10; fill: rgb(179,218,254); fill-rule: nonzero; opacity: 1;" transform="  matrix(1 0 0 1 0 0) "/>
	<path d="M 45 89.999 c -19.261 0 -34.931 -15.669 -34.931 -34.931 c 0 -19.261 15.67 -34.93 34.931 -34.93 c 19.261 0 34.931 15.669 34.931 34.93 C 79.931 74.329 64.261 89.999 45 89.999 z M 45 22.138 c -18.158 0 -32.931 14.772 -32.931 32.93 S 26.842 87.999 45 87.999 c 18.158 0 32.931 -14.773 32.931 -32.931 S 63.158 22.138 45 22.138 z" style="stroke: none; stroke-width: 1; stroke-dasharray: none; stroke-linecap: butt; stroke-linejoin: miter; stroke-miterlimit: 10; fill: rgb(0,0,0); fill-rule: nonzero; opacity: 1;" transform=" matrix(1 0 0 1 0 0) " stroke-linecap="round" />
	<rect x="44" y="21.14" rx="0" ry="0" width="2" height="67.86" style="stroke: none; stroke-width: 1; stroke-dasharray: none; stroke-linecap: butt; stroke-linejoin: miter; stroke-miterlimit: 10; fill: rgb(0,0,0); fill-rule: nonzero; opacity: 1;" transform=" matrix(1 0 0 1 0 0) "/>
	<path d="M 45 42.852 c -10.242 0 -19.928 -3.248 -26.572 -8.911 l 1.297 -1.522 c 6.289 5.36 15.501 8.434 25.276 8.434 s 18.986 -3.074 25.276 -8.434 l 1.297 1.522 C 64.927 39.604 55.242 42.852 45 42.852 z" style="stroke: none; stroke-width: 1; stroke-dasharray: none; stroke-linecap: butt; stroke-linejoin: miter; stroke-miterlimit: 10; fill: rgb(0,0,0); fill-rule: nonzero; opacity: 1;" transform=" matrix(1 0 0 1 0 0) " stroke-linecap="round" />
	<path d="M 19.725 77.717 l -1.297 -1.521 c 6.645 -5.663 16.33 -8.911 26.571 -8.911 c 10.242 0 19.927 3.248 26.57 8.911 l -1.297 1.521 C 63.986 72.358 54.774 69.284 45 69.284 C 35.227 69.284 26.015 72.358 19.725 77.717 z" style="stroke: none; stroke-width: 1; stroke-dasharray: none; stroke-linecap: butt; stroke-linejoin: miter; stroke-miterlimit: 10; fill: rgb(0,0,0); fill-rule: nonzero; opacity: 1;" transform=" matrix(1 0 0 1 0 0) " stroke-linecap="round" />
	<rect x="11.07" y="54.07" rx="0" ry="0" width="67.86" height="2" style="stroke: none; stroke-width: 1; stroke-dasharray: none; stroke-linecap: butt; stroke-linejoin: miter; stroke-miterlimit: 10; fill: rgb(0,0,0); fill-rule: nonzero; opacity: 1;" transform=" matrix(1 0 0 1 0 0) "/>
	<path d="M 45 89.999 c -10.251 0 -18.591 -15.669 -18.591 -34.931 c 0 -19.261 8.34 -34.93 18.591 -34.93 c 10.251 0 18.59 15.669 18.59 34.93 C 63.59 74.329 55.251 89.999 45 89.999 z M 45 22.138 c -9.148 0 -16.591 14.772 -16.591 32.93 S 35.852 87.999 45 87.999 s 16.59 -14.773 16.59 -32.931 S 54.148 22.138 45 22.138 z" style="stroke: none; stroke-width: 1; stroke-dasharray: none; stroke-linecap: butt; stroke-linejoin: miter; stroke-miterlimit: 10; fill: rgb(0,0,0); fill-rule: nonzero; opacity: 1;" transform=" matrix(1 0 0 1 0 0) " stroke-linecap="round" />
	<path d="M 32.362 12.951 v 4.627 c 8.163 -1.71 16.326 -1.71 24.489 0 v -4.636 l 10.312 -3.388 c 0.695 -0.228 0.695 -1.211 0 -1.439 L 46.815 1.429 c -1.444 -0.475 -3.003 -0.475 -4.447 0 L 22.021 8.115 c -0.695 0.228 -0.695 1.211 0 1.439 L 32.362 12.951" style="stroke: none; stroke-width: 1; stroke-dasharray: none; stroke-linecap: butt; stroke-linejoin: miter; stroke-miterlimit: 10; fill: rgb(63,110,144); fill-rule: nonzero; opacity: 1;" transform=" matrix(1 0 0 1 0 0) " stroke-linecap="round" />
	<path d="M 23.59 23.698 h -4.18 v -6.55 c 0 -1.154 0.936 -2.09 2.09 -2.09 h 0 c 1.154 0 2.09 0.936 2.09 2.09 V 23.698 z" style="stroke: none; stroke-width: 1; stroke-dasharray: none; stroke-linecap: butt; stroke-linejoin: miter; stroke-miterlimit: 10; fill: rgb(249,208,112); fill-rule: nonzero; opacity: 1;" transform=" matrix(1 0 0 1 0 0) " stroke-linecap="round" />
	<path d="M 57.454 18.491 c -0.553 0 -1 -0.448 -1 -1 v -7.152 c 0 -0.552 0.447 -1 1 -1 c 0.553 0 1 0.448 1 1 v 7.152 C 58.454 18.043 58.006 18.491 57.454 18.491 z" style="stroke: none; stroke-width: 1; stroke-dasharray: none; stroke-linecap: butt; stroke-linejoin: miter; stroke-miterlimit: 10; fill: rgb(0,0,0); fill-rule: nonzero; opacity: 1;" transform=" matrix(1 0 0 1 0 0) " stroke-linecap="round" />
	<path d="M 32.575 18.491 c -0.552 0 -1 -0.448 -1 -1 v -7.152 c 0 -0.552 0.448 -1 1 -1 s 1 0.448 1 1 v 7.152 C 33.575 18.043 33.127 18.491 32.575 18.491 z" style="stroke: none; stroke-width: 1; stroke-dasharray: none; stroke-linecap: butt; stroke-linejoin: miter; stroke-miterlimit: 10; fill: rgb(0,0,0); fill-rule: nonzero; opacity: 1;" transform=" matrix(1 0 0 1 0 0) " stroke-linecap="round" />
	<path d="M 32.575 14.069 c -0.104 0 -0.208 -0.017 -0.312 -0.05 l -10.506 -3.452 c -0.728 -0.239 -1.217 -0.915 -1.217 -1.681 c 0 -0.767 0.489 -1.442 1.217 -1.682 l 20.672 -6.792 c 1.682 -0.553 3.461 -0.553 5.142 0 l 20.671 6.792 c 0.728 0.239 1.217 0.915 1.217 1.682 c 0 0.766 -0.489 1.442 -1.217 1.681 l -10.476 3.442 c -0.528 0.171 -1.09 -0.113 -1.263 -0.638 c -0.172 -0.524 0.113 -1.09 0.638 -1.262 l 9.81 -3.223 L 46.946 2.313 c -1.274 -0.42 -2.621 -0.419 -3.893 0 L 23.048 8.886 l 9.84 3.233 c 0.525 0.172 0.811 0.738 0.638 1.262 C 33.387 13.802 32.996 14.069 32.575 14.069 z" style="stroke: none; stroke-width: 1; stroke-dasharray: none; stroke-linecap: butt; stroke-linejoin: miter; stroke-miterlimit: 10; fill: rgb(0,0,0); fill-rule: nonzero; opacity: 1;" transform=" matrix(1 0 0 1 0 0) " stroke-linecap="round" />
	<path d="M 57.455 11.338 c -0.068 0 -0.137 -0.007 -0.206 -0.021 c -2.143 -0.449 -4.316 -0.784 -6.459 -0.996 c -0.55 -0.054 -0.951 -0.544 -0.896 -1.093 c 0.054 -0.549 0.522 -0.958 1.094 -0.897 c 2.214 0.219 4.459 0.565 6.672 1.029 c 0.54 0.113 0.887 0.643 0.773 1.184 C 58.334 11.015 57.918 11.338 57.455 11.338 z" style="stroke: none; stroke-width: 1; stroke-dasharray: none; stroke-linecap: butt; stroke-linejoin: miter; stroke-miterlimit: 10; fill: rgb(0,0,0); fill-rule: nonzero; opacity: 1;" transform=" matrix(1 0 0 1 0 0) " stroke-linecap="round" />
	<path d="M 32.574 11.338 c -0.463 0 -0.879 -0.324 -0.978 -0.795 c -0.113 -0.541 0.233 -1.071 0.773 -1.184 C 36.558 8.482 40.808 8.037 45 8.036 c 0.552 0 1 0.447 1 1 c 0 0.552 -0.447 1 -1 1 c -4.054 0.001 -8.166 0.432 -12.22 1.281 C 32.711 11.332 32.642 11.338 32.574 11.338 z" style="stroke: none; stroke-width: 1; stroke-dasharray: none; stroke-linecap: butt; stroke-linejoin: miter; stroke-miterlimit: 10; fill: rgb(0,0,0); fill-rule: nonzero; opacity: 1;" transform=" matrix(1 0 0 1 0 0) " stroke-linecap="round" />
	<path d="M 21.54 16.057 c -0.552 0 -1 -0.448 -1 -1 V 8.886 c 0 -0.552 0.448 -1 1 -1 c 0.552 0 1 0.448 1 1 v 6.171 C 22.54 15.609 22.093 16.057 21.54 16.057 z" style="stroke: none; stroke-width: 1; stroke-dasharray: none; stroke-linecap: butt; stroke-linejoin: miter; stroke-miterlimit: 10; fill: rgb(0,0,0); fill-rule: nonzero; opacity: 1;" transform=" matrix(1 0 0 1 0 0) " stroke-linecap="round" />
	<path d="M 23.671 24.78 H 19.41 c -0.552 0 -1 -0.448 -1 -1 v -6.676 c 0 -1.726 1.404 -3.13 3.13 -3.13 c 1.726 0 3.13 1.404 3.13 3.13 v 6.676 C 24.671 24.333 24.223 24.78 23.671 24.78 z M 20.41 22.781 h 2.261 v -5.676 c 0 -0.623 -0.507 -1.13 -1.13 -1.13 c -0.623 0 -1.13 0.507 -1.13 1.13 V 22.781 z" style="stroke: none; stroke-width: 1; stroke-dasharray: none; stroke-linecap: butt; stroke-linejoin: miter; stroke-miterlimit: 10; fill: rgb(0,0,0); fill-rule: nonzero; opacity: 1;" transform=" matrix(1 0 0 1 0 0) " stroke-linecap="round" />
</g>
</svg>