<svg xmlns="http://www.w3.org/2000/svg" xmlns:xlink="http://www.w3.org/1999/xlink" version="1.1" width="256" height="256" viewBox="0 0 256 256" xml:space="preserve">

<defs>
</defs>
<g style="stroke: none; stroke-width: 0; stroke-dasharray: none; stroke-linecap: butt; stroke-linejoin: miter; stroke-miterlimit: 10; fill: none; fill-rule: nonzero; opacity: 1;" transform="translate(1.4065934065934016 1.4065934065934016) scale(2.81 2.81)" >
	<circle cx="45.001000000000005" cy="42.661" r="38.151" style="stroke: none; stroke-width: 1; stroke-dasharray: none; stroke-linecap: butt; stroke-linejoin: miter; stroke-miterlimit: 10; fill: rgb(179,218,254); fill-rule: nonzero; opacity: 1;" transform="  matrix(1 0 0 1 0 0) "/>
	<path d="M 83.754 54.813 H 6.246 C 3.349 54.813 1 57.162 1 60.059 v 20.179 c 0 2.897 2.349 5.246 5.246 5.246 h 77.507 c 2.897 0 5.246 -2.349 5.246 -5.246 V 60.059 C 89 57.162 86.651 54.813 83.754 54.813 z" style="stroke: none; stroke-width: 1; stroke-dasharray: none; stroke-linecap: butt; stroke-linejoin: miter; stroke-miterlimit: 10; fill: rgb(238,240,245); fill-rule: nonzero; opacity: 1;" transform=" matrix(1 0 0 1 0 0) " stroke-linecap="round" />
	<path d="M 83.754 85.485 c 2.897 0 5.246 -2.349 5.246 -5.246 V 60.059 c 0 -2.897 -2.349 -5.246 -5.246 -5.246 H 63.014 v 30.672 H 83.754 z" style="stroke: none; stroke-width: 1; stroke-dasharray: none; stroke-linecap: butt; stroke-linejoin: miter; stroke-miterlimit: 10; fill: rgb(249,208,112); fill-rule: nonzero; opacity: 1;" transform=" matrix(1 0 0 1 0 0) " stroke-linecap="round" />
	<circle cx="74.63" cy="68.36" r="6.47" style="stroke: none; stroke-width: 1; stroke-dasharray: none; stroke-linecap: butt; stroke-linejoin: miter; stroke-miterlimit: 10; fill: rgb(255,255,255); fill-rule: nonzero; opacity: 1;" transform="  matrix(1 0 0 1 0 0) "/>
	<path d="M 45 49.813 c -0.552 0 -1 -0.447 -1 -1 V 4.515 c 0 -0.552 0.448 -1 1 -1 s 1 0.448 1 1 v 44.297 C 46 49.365 45.552 49.813 45 49.813 z" style="stroke: none; stroke-width: 1; stroke-dasharray: none; stroke-linecap: butt; stroke-linejoin: miter; stroke-miterlimit: 10; fill: rgb(0,0,0); fill-rule: nonzero; opacity: 1;" transform=" matrix(1 0 0 1 0 0) " stroke-linecap="round" />
	<path d="M 45 28.698 c -11.435 0 -22.246 -3.625 -29.662 -9.945 c -0.42 -0.358 -0.471 -0.99 -0.113 -1.41 c 0.358 -0.421 0.99 -0.471 1.41 -0.113 c 7.06 6.017 17.398 9.468 28.365 9.468 c 10.966 0 21.305 -3.451 28.364 -9.467 c 0.42 -0.357 1.052 -0.309 1.409 0.113 c 0.358 0.42 0.309 1.051 -0.112 1.41 C 67.245 25.073 56.435 28.698 45 28.698 z" style="stroke: none; stroke-width: 1; stroke-dasharray: none; stroke-linecap: butt; stroke-linejoin: miter; stroke-miterlimit: 10; fill: rgb(0,0,0); fill-rule: nonzero; opacity: 1;" transform=" matrix(1 0 0 1 0 0) " stroke-linecap="round" />
	<path d="M 82.974 43.489 H 7.026 c -0.552 0 -1 -0.448 -1 -1 s 0.448 -1 1 -1 h 75.947 c 0.553 0 1 0.448 1 1 S 83.526 43.489 82.974 43.489 z" style="stroke: none; stroke-width: 1; stroke-dasharray: none; stroke-linecap: butt; stroke-linejoin: miter; stroke-miterlimit: 10; fill: rgb(0,0,0); fill-rule: nonzero; opacity: 1;" transform=" matrix(1 0 0 1 0 0) " stroke-linecap="round" />
	<path d="M 83.754 86.485 H 6.247 C 2.802 86.485 0 83.683 0 80.238 V 60.06 c 0 -3.444 2.802 -6.247 6.247 -6.247 h 77.507 c 3.444 0 6.246 2.803 6.246 6.247 v 20.179 C 90 83.683 87.198 86.485 83.754 86.485 z M 6.247 55.813 C 3.905 55.813 2 57.718 2 60.06 v 20.179 c 0 2.342 1.905 4.247 4.247 4.247 h 77.507 c 2.341 0 4.246 -1.905 4.246 -4.247 V 60.06 c 0 -2.342 -1.905 -4.247 -4.246 -4.247 H 6.247 z" style="stroke: none; stroke-width: 1; stroke-dasharray: none; stroke-linecap: butt; stroke-linejoin: miter; stroke-miterlimit: 10; fill: rgb(0,0,0); fill-rule: nonzero; opacity: 1;" transform=" matrix(1 0 0 1 0 0) " stroke-linecap="round" />
	<path d="M 7.56 49.813 c -0.48 0 -0.903 -0.346 -0.985 -0.835 c -0.363 -2.167 -0.548 -4.35 -0.548 -6.489 C 6.026 20.999 23.51 3.515 45 3.515 s 38.974 17.483 38.974 38.974 c 0 2.136 -0.185 4.319 -0.548 6.489 c -0.092 0.545 -0.606 0.913 -1.151 0.821 s -0.912 -0.606 -0.821 -1.151 c 0.346 -2.062 0.521 -4.133 0.521 -6.159 C 81.974 22.102 65.388 5.515 45 5.515 c -20.387 0 -36.974 16.586 -36.974 36.974 c 0 2.028 0.175 4.1 0.521 6.159 c 0.091 0.544 -0.276 1.06 -0.821 1.151 C 7.67 49.809 7.614 49.813 7.56 49.813 z" style="stroke: none; stroke-width: 1; stroke-dasharray: none; stroke-linecap: butt; stroke-linejoin: miter; stroke-miterlimit: 10; fill: rgb(0,0,0); fill-rule: nonzero; opacity: 1;" transform=" matrix(1 0 0 1 0 0) " stroke-linecap="round" />
	<path d="M 25.589 49.813 c -0.513 0 -0.95 -0.393 -0.995 -0.913 c -0.187 -2.139 -0.281 -4.295 -0.281 -6.411 c 0 -21.49 9.28 -38.974 20.687 -38.974 c 11.406 0 20.687 17.483 20.687 38.974 c 0 2.113 -0.095 4.27 -0.28 6.411 c -0.047 0.551 -0.517 0.968 -1.083 0.909 c -0.55 -0.048 -0.957 -0.532 -0.909 -1.083 c 0.181 -2.082 0.272 -4.181 0.272 -6.237 c 0 -20.387 -8.383 -36.974 -18.687 -36.974 S 26.313 22.102 26.313 42.489 c 0 2.058 0.092 4.157 0.273 6.237 c 0.048 0.551 -0.359 1.035 -0.909 1.083 C 25.647 49.812 25.618 49.813 25.589 49.813 z" style="stroke: none; stroke-width: 1; stroke-dasharray: none; stroke-linecap: butt; stroke-linejoin: miter; stroke-miterlimit: 10; fill: rgb(0,0,0); fill-rule: nonzero; opacity: 1;" transform=" matrix(1 0 0 1 0 0) " stroke-linecap="round" />
	<path d="M 63.015 86.485 c -0.553 0 -1 -0.447 -1 -1 V 54.813 c 0 -0.553 0.447 -1 1 -1 s 1 0.447 1 1 v 30.673 C 64.015 86.038 63.567 86.485 63.015 86.485 z" style="stroke: none; stroke-width: 1; stroke-dasharray: none; stroke-linecap: butt; stroke-linejoin: miter; stroke-miterlimit: 10; fill: rgb(0,0,0); fill-rule: nonzero; opacity: 1;" transform=" matrix(1 0 0 1 0 0) " stroke-linecap="round" />
	<path d="M 84.67 79.405 c -0.256 0 -0.512 -0.098 -0.707 -0.293 l -5.467 -5.468 c -0.391 -0.391 -0.391 -1.023 0 -1.414 s 1.023 -0.391 1.414 0 l 5.467 5.468 c 0.391 0.391 0.391 1.023 0 1.414 C 85.182 79.308 84.926 79.405 84.67 79.405 z" style="stroke: none; stroke-width: 1; stroke-dasharray: none; stroke-linecap: butt; stroke-linejoin: miter; stroke-miterlimit: 10; fill: rgb(0,0,0); fill-rule: nonzero; opacity: 1;" transform=" matrix(1 0 0 1 0 0) " stroke-linecap="round" />
	<path d="M 74.629 75.833 c -1.996 0 -3.872 -0.777 -5.282 -2.188 c -1.411 -1.41 -2.188 -3.286 -2.188 -5.282 c 0 -1.995 0.777 -3.871 2.188 -5.281 c 1.411 -1.411 3.286 -2.188 5.282 -2.188 c 1.995 0 3.87 0.776 5.281 2.188 s 2.188 3.286 2.188 5.281 c 0 1.996 -0.776 3.871 -2.188 5.282 C 78.5 75.056 76.624 75.833 74.629 75.833 z M 74.629 62.894 c -1.462 0 -2.835 0.568 -3.868 1.602 s -1.603 2.406 -1.603 3.867 c 0 1.462 0.569 2.835 1.603 3.868 s 2.406 1.603 3.868 1.603 c 1.461 0 2.834 -0.569 3.867 -1.603 s 1.602 -2.406 1.602 -3.868 c 0 -1.461 -0.568 -2.834 -1.602 -3.867 S 76.09 62.894 74.629 62.894 z" style="stroke: none; stroke-width: 1; stroke-dasharray: none; stroke-linecap: butt; stroke-linejoin: miter; stroke-miterlimit: 10; fill: rgb(0,0,0); fill-rule: nonzero; opacity: 1;" transform=" matrix(1 0 0 1 0 0) " stroke-linecap="round" />
	<path d="M 19.231 80.094 c -0.552 0 -1 -0.447 -1 -1 V 66.266 c 0 -2.239 -1.822 -4.062 -4.062 -4.062 s -4.062 1.822 -4.062 4.062 v 12.828 c 0 0.553 -0.448 1 -1 1 s -1 -0.447 -1 -1 V 66.266 c 0 -3.343 2.719 -6.062 6.062 -6.062 c 3.343 0 6.062 2.719 6.062 6.062 v 12.828 C 20.231 79.646 19.783 80.094 19.231 80.094 z" style="stroke: none; stroke-width: 1; stroke-dasharray: none; stroke-linecap: butt; stroke-linejoin: miter; stroke-miterlimit: 10; fill: rgb(0,0,0); fill-rule: nonzero; opacity: 1;" transform=" matrix(1 0 0 1 0 0) " stroke-linecap="round" />
	<path d="M 19.231 72.346 H 9.107 c -0.552 0 -1 -0.447 -1 -1 s 0.448 -1 1 -1 h 10.124 c 0.552 0 1 0.447 1 1 S 19.783 72.346 19.231 72.346 z" style="stroke: none; stroke-width: 1; stroke-dasharray: none; stroke-linecap: butt; stroke-linejoin: miter; stroke-miterlimit: 10; fill: rgb(0,0,0); fill-rule: nonzero; opacity: 1;" transform=" matrix(1 0 0 1 0 0) " stroke-linecap="round" />
	<path d="M 43.107 72.346 c -0.552 0 -1 -0.447 -1 -1 v -5.08 c 0 -3.343 2.719 -6.062 6.062 -6.062 c 3.343 0 6.062 2.719 6.062 6.062 c 0 0.553 -0.447 1 -1 1 s -1 -0.447 -1 -1 c 0 -2.239 -1.822 -4.062 -4.062 -4.062 c -2.24 0 -4.062 1.822 -4.062 4.062 v 5.08 C 44.107 71.898 43.66 72.346 43.107 72.346 z" style="stroke: none; stroke-width: 1; stroke-dasharray: none; stroke-linecap: butt; stroke-linejoin: miter; stroke-miterlimit: 10; fill: rgb(0,0,0); fill-rule: nonzero; opacity: 1;" transform=" matrix(1 0 0 1 0 0) " stroke-linecap="round" />
	<path d="M 48.169 80.401 c -3.342 0 -6.062 -2.719 -6.062 -6.062 v -5.08 c 0 -0.553 0.448 -1 1 -1 s 1 0.447 1 1 v 5.08 c 0 2.239 1.822 4.062 4.062 4.062 c 2.239 0 4.062 -1.822 4.062 -4.062 c 0 -0.553 0.447 -1 1 -1 s 1 0.447 1 1 C 54.23 77.683 51.512 80.401 48.169 80.401 z" style="stroke: none; stroke-width: 1; stroke-dasharray: none; stroke-linecap: butt; stroke-linejoin: miter; stroke-miterlimit: 10; fill: rgb(0,0,0); fill-rule: nonzero; opacity: 1;" transform=" matrix(1 0 0 1 0 0) " stroke-linecap="round" />
	<path d="M 32.724 80.094 h -6.616 c -0.552 0 -1 -0.447 -1 -1 v -17.89 c 0 -0.553 0.448 -1 1 -1 h 6.616 c 2.485 0 4.507 2.021 4.507 4.507 v 2.605 c 0 1.128 -0.472 2.132 -1.223 2.829 c 0.751 0.691 1.223 1.683 1.223 2.781 v 2.66 C 37.231 78.072 35.209 80.094 32.724 80.094 z M 27.107 78.094 h 5.616 c 1.382 0 2.507 -1.125 2.507 -2.507 v -2.66 c 0 -0.98 -0.797 -1.778 -1.778 -1.778 h -6.346 V 78.094 z M 33.453 69.148 c 0.98 0 1.778 -0.797 1.778 -1.777 v -2.66 c 0 -1.382 -1.125 -2.507 -2.507 -2.507 h -5.616 v 6.944 H 33.453 z" style="stroke: none; stroke-width: 1; stroke-dasharray: none; stroke-linecap: butt; stroke-linejoin: miter; stroke-miterlimit: 10; fill: rgb(0,0,0); fill-rule: nonzero; opacity: 1;" transform=" matrix(1 0 0 1 0 0) " stroke-linecap="round" />
</g>
</svg>